<svg width="50" height="50" viewBox="0 0 50 50" fill="none" xmlns="http://www.w3.org/2000/svg">
<path fill-rule="evenodd" clip-rule="evenodd" d="M50 12.5397C49.9604 5.63492 44.3299 0 37.4306 0H12.5297C5.63045 0 0 5.63492 0 12.5397V37.5C0 44.3651 5.63045 50 12.5297 50H37.4703C44.3696 50 50 44.3651 50 37.4603V12.5397ZM30.7248 13.711C31.7552 13.711 32.5751 14.2115 33.6089 14.845L34.843 9.9538C34.4069 9.82569 33.9892 9.69048 33.5805 9.55818C32.2084 9.11399 30.9375 8.70258 29.4088 8.70258C27.4733 8.70258 25.6029 9.02807 24.3387 9.67381C23.0728 10.3213 22.1627 11.4658 21.6934 12.493C21.2224 13.5237 20.9836 14.7732 20.9836 16.8609V18.8436H17.819V24.0375H20.9803V41.2957H27.7538V24.0375H31.979L33.1463 18.8436H27.7538V16.9764C27.7538 15.7147 27.9726 14.8607 28.4135 14.4197C28.8544 13.9752 29.7161 13.711 30.7248 13.711Z" fill="white"/>
</svg>
