<svg width="50" height="50" viewBox="0 0 50 50" fill="none" xmlns="http://www.w3.org/2000/svg">
<path d="M25 32.9018C20.6359 32.9018 17.0982 29.3641 17.0982 25C17.0982 20.6359 20.636 17.0982 25 17.0982C29.3641 17.0982 32.9018 20.6359 32.9018 25C32.9018 29.364 29.364 32.9018 25 32.9018Z" fill="white"/>
<path fill-rule="evenodd" clip-rule="evenodd" d="M14.8953 0H35.1047C43.3179 0 49.9999 6.68199 50 14.8953V35.1047C50 43.318 43.318 50 35.1047 50H14.8953C6.68199 50 0 43.318 0 35.1047V14.8953C0 6.68199 6.68199 0 14.8953 0ZM25 12.0682C17.8694 12.0682 12.0682 17.8694 12.0682 24.9999C12.0682 32.1304 17.8694 37.9317 25 37.9317C32.1306 37.9317 37.9318 32.1305 37.9318 24.9999C37.9318 17.8693 32.1306 12.0682 25 12.0682ZM41.0551 12.1655C41.0551 13.8768 39.6678 15.2641 37.9565 15.2641C36.2451 15.2641 34.8578 13.8768 34.8578 12.1655C34.8578 10.4542 36.2451 9.06686 37.9565 9.06686C39.6678 9.06686 41.0551 10.4542 41.0551 12.1655Z" fill="white"/>
</svg>
