<?xml version="1.0" encoding="UTF-8"?>
<svg xmlns="http://www.w3.org/2000/svg" xmlns:xlink="http://www.w3.org/1999/xlink" width="25px" height="25px" viewBox="0 0 25 25" version="1.1">
<g id="surface1">
<path style=" stroke:none;fill-rule:nonzero;fill:rgb(83.529412%,95.294118%,12.156863%);fill-opacity:1;" d="M 22.121094 16.71875 L 18.65625 16.324219 C 17.824219 16.226562 17.003906 16.515625 16.417969 17.101562 L 13.90625 19.613281 C 10.046875 17.648438 6.878906 14.496094 4.917969 10.621094 L 7.441406 8.097656 C 8.027344 7.507812 8.3125 6.691406 8.21875 5.859375 L 7.824219 2.417969 C 7.660156 1.042969 6.5 0.00390625 5.105469 0.00390625 L 2.746094 0.00390625 C 1.203125 0.00390625 -0.078125 1.289062 0.0195312 2.828125 C 0.742188 14.480469 10.058594 23.785156 21.699219 24.507812 C 23.238281 24.605469 24.523438 23.324219 24.523438 21.78125 L 24.523438 19.421875 C 24.535156 18.042969 23.5 16.882812 22.121094 16.71875 Z M 22.121094 16.71875 "/>
</g>
</svg>
