<svg width="51" height="51" viewBox="0 0 51 51" fill="none" xmlns="http://www.w3.org/2000/svg">
<path d="M45.1273 34.1064L38.0575 33.2992C36.3597 33.1044 34.6896 33.6889 33.4928 34.8857L28.3714 40.0072C20.4944 35.9991 14.0369 29.5695 10.0289 21.6647L15.1781 16.5154C16.375 15.3186 16.9595 13.6486 16.7647 11.9507L15.9575 4.93658C15.6235 2.12536 13.2576 0.00999451 10.4186 0.00999451H5.60331C2.45809 0.00999451 -0.158291 2.62637 0.0365461 5.77159C1.51174 29.5417 20.5222 48.5243 44.2645 49.9995C47.4097 50.1943 50.026 47.578 50.026 44.4327V39.6175C50.0539 36.8063 47.9385 34.4404 45.1273 34.1064V34.1064Z" fill="#D5F31F"/>
</svg>
