<svg width="50" height="50" viewBox="0 0 50 50" fill="none" xmlns="http://www.w3.org/2000/svg">
<path d="M37.4306 0H12.5297C5.63045 0 0 5.63492 0 12.5397V37.5C0 44.3651 5.63045 50 12.5297 50H37.4703C44.3696 50 50 44.3651 50 37.4603V12.5397C49.9603 5.63492 44.3299 0 37.4306 0ZM37.391 18.7302C37.391 19.0079 37.391 19.2857 37.391 19.5635C37.391 27.8968 30.9675 37.5 19.1911 37.5C15.5829 37.5 12.2125 36.4683 9.3973 34.6825C9.91277 34.7222 10.3886 34.7619 10.904 34.7619C13.9175 34.7619 16.6535 33.7698 18.8343 32.0635C16.019 32.0238 13.6796 30.1984 12.8469 27.6984C13.2435 27.7778 13.64 27.8175 14.0365 27.8175C14.6312 27.8175 15.226 27.7381 15.7415 27.5794C12.8866 26.9841 10.7058 24.4444 10.7058 21.3889V21.3095C11.4988 21.7857 12.5297 22.0635 13.5607 22.1032C11.8557 20.9921 10.7058 19.0476 10.7058 16.8651C10.7058 15.7143 11.023 14.6429 11.5781 13.6905C14.7502 17.5 19.429 20 24.7423 20.2778C24.6233 19.8016 24.5837 19.3254 24.5837 18.8492C24.5837 15.3571 27.4385 12.5397 30.9675 12.5397C32.7914 12.5397 34.4568 13.2937 35.6463 14.5238C37.1134 14.246 38.4615 13.7302 39.6907 12.9762C39.2149 14.4444 38.184 15.6746 36.8755 16.4683C38.184 16.3095 39.4132 15.9921 40.563 15.4762C39.6907 16.746 38.6201 17.8571 37.391 18.7302Z" fill="white"/>
</svg>
